<mxfile host="Electron" agent="Mozilla/5.0 (Windows NT 10.0; Win64; x64) AppleWebKit/537.36 (KHTML, like Gecko) draw.io/24.7.8 Chrome/128.0.6613.36 Electron/32.0.1 Safari/537.36" version="24.7.8">
  <diagram name="Page-1" id="-H_mtQnk-PTXWXPvYvuk">
    <mxGraphModel dx="653" dy="421" grid="1" gridSize="10" guides="1" tooltips="1" connect="1" arrows="1" fold="1" page="1" pageScale="1" pageWidth="1169" pageHeight="827" math="0" shadow="0">
      <root>
        <mxCell id="0" />
        <mxCell id="1" parent="0" />
        <mxCell id="ufz0cKF_8sv-xkruWy4r-11" value="" style="rounded=1;whiteSpace=wrap;html=1;fillColor=#0000FF;" parent="1" vertex="1">
          <mxGeometry x="165" y="10" width="180" height="180" as="geometry" />
        </mxCell>
        <mxCell id="FVx5Pew635A9cgDZqpCC-43" value="" style="rounded=1;whiteSpace=wrap;html=1;fillColor=#FF6666;" parent="1" vertex="1">
          <mxGeometry x="4.549999999999999" y="310" width="190.91" height="140" as="geometry" />
        </mxCell>
        <mxCell id="FVx5Pew635A9cgDZqpCC-42" value="" style="rounded=1;whiteSpace=wrap;html=1;fillColor=#00FFFF;" parent="1" vertex="1">
          <mxGeometry x="19.44" y="550" width="161.11" height="145" as="geometry" />
        </mxCell>
        <mxCell id="FVx5Pew635A9cgDZqpCC-41" value="" style="rounded=1;whiteSpace=wrap;html=1;fillColor=#FF99CC;" parent="1" vertex="1">
          <mxGeometry x="395" y="580" width="130" height="140" as="geometry" />
        </mxCell>
        <mxCell id="FVx5Pew635A9cgDZqpCC-40" value="" style="rounded=1;whiteSpace=wrap;html=1;fillColor=#FF99CC;" parent="1" vertex="1">
          <mxGeometry x="395" y="20" width="130" height="140" as="geometry" />
        </mxCell>
        <mxCell id="FVx5Pew635A9cgDZqpCC-37" value="" style="rounded=1;whiteSpace=wrap;html=1;fillColor=#009E00;" parent="1" vertex="1">
          <mxGeometry x="325" y="250" width="270" height="281.25" as="geometry" />
        </mxCell>
        <mxCell id="FVx5Pew635A9cgDZqpCC-36" value="" style="rounded=1;whiteSpace=wrap;html=1;fillColor=#3399FF;" parent="1" vertex="1">
          <mxGeometry x="630" y="110" width="510" height="500" as="geometry" />
        </mxCell>
        <mxCell id="FVx5Pew635A9cgDZqpCC-5" value="" style="edgeStyle=orthogonalEdgeStyle;rounded=0;orthogonalLoop=1;jettySize=auto;html=1;dashed=1;startArrow=classic;startFill=1;" parent="1" source="zA23MoTUsTF4_91t8viU-2" target="FVx5Pew635A9cgDZqpCC-2" edge="1">
          <mxGeometry relative="1" as="geometry" />
        </mxCell>
        <mxCell id="zA23MoTUsTF4_91t8viU-2" value="MongoDB&lt;div&gt;shard 1-1&lt;/div&gt;" style="shape=cylinder3;whiteSpace=wrap;html=1;boundedLbl=1;backgroundOutline=1;size=15;" parent="1" vertex="1">
          <mxGeometry x="855" y="240" width="60" height="80" as="geometry" />
        </mxCell>
        <mxCell id="ufz0cKF_8sv-xkruWy4r-3" style="edgeStyle=orthogonalEdgeStyle;rounded=0;orthogonalLoop=1;jettySize=auto;html=1;exitX=0;exitY=0.75;exitDx=0;exitDy=0;entryX=1;entryY=0.5;entryDx=0;entryDy=0;dashed=1;" parent="1" source="zA23MoTUsTF4_91t8viU-3" target="FVx5Pew635A9cgDZqpCC-22" edge="1">
          <mxGeometry relative="1" as="geometry" />
        </mxCell>
        <mxCell id="zA23MoTUsTF4_91t8viU-3" value="pymongo-api" style="rounded=1;whiteSpace=wrap;html=1;" parent="1" vertex="1">
          <mxGeometry x="400" y="430" width="120" height="60" as="geometry" />
        </mxCell>
        <mxCell id="FVx5Pew635A9cgDZqpCC-11" style="edgeStyle=orthogonalEdgeStyle;rounded=0;orthogonalLoop=1;jettySize=auto;html=1;exitX=0.5;exitY=0;exitDx=0;exitDy=0;exitPerimeter=0;dashed=1;endArrow=none;endFill=0;entryX=0.5;entryY=1;entryDx=0;entryDy=0;entryPerimeter=0;" parent="1" target="zA23MoTUsTF4_91t8viU-2" edge="1">
          <mxGeometry relative="1" as="geometry">
            <mxPoint x="885" y="380" as="targetPoint" />
            <mxPoint x="885" y="440" as="sourcePoint" />
          </mxGeometry>
        </mxCell>
        <mxCell id="whR3XcUw4ILn3mc_81YM-1" value="MongoDB&lt;div&gt;shard 2-1&lt;/div&gt;" style="shape=cylinder3;whiteSpace=wrap;html=1;boundedLbl=1;backgroundOutline=1;size=15;" parent="1" vertex="1">
          <mxGeometry x="855" y="440" width="60" height="80" as="geometry" />
        </mxCell>
        <mxCell id="whR3XcUw4ILn3mc_81YM-3" value="MongoDB&lt;div&gt;config svr&lt;/div&gt;" style="shape=cylinder3;whiteSpace=wrap;html=1;boundedLbl=1;backgroundOutline=1;size=15;" parent="1" vertex="1">
          <mxGeometry x="645" y="160" width="60" height="80" as="geometry" />
        </mxCell>
        <mxCell id="whR3XcUw4ILn3mc_81YM-9" style="edgeStyle=orthogonalEdgeStyle;rounded=0;orthogonalLoop=1;jettySize=auto;html=1;exitX=0.5;exitY=0;exitDx=0;exitDy=0;exitPerimeter=0;" parent="1" source="whR3XcUw4ILn3mc_81YM-4" target="whR3XcUw4ILn3mc_81YM-3" edge="1">
          <mxGeometry relative="1" as="geometry" />
        </mxCell>
        <mxCell id="whR3XcUw4ILn3mc_81YM-4" value="MongoDB&lt;div&gt;router&lt;/div&gt;" style="shape=cylinder3;whiteSpace=wrap;html=1;boundedLbl=1;backgroundOutline=1;size=15;" parent="1" vertex="1">
          <mxGeometry x="645" y="340" width="60" height="80" as="geometry" />
        </mxCell>
        <mxCell id="whR3XcUw4ILn3mc_81YM-5" style="edgeStyle=orthogonalEdgeStyle;rounded=0;orthogonalLoop=1;jettySize=auto;html=1;exitX=1;exitY=0.5;exitDx=0;exitDy=0;entryX=0;entryY=0.5;entryDx=0;entryDy=0;entryPerimeter=0;" parent="1" source="zA23MoTUsTF4_91t8viU-3" target="whR3XcUw4ILn3mc_81YM-4" edge="1">
          <mxGeometry relative="1" as="geometry">
            <Array as="points">
              <mxPoint x="560" y="460" />
              <mxPoint x="560" y="380" />
            </Array>
          </mxGeometry>
        </mxCell>
        <mxCell id="whR3XcUw4ILn3mc_81YM-7" style="edgeStyle=orthogonalEdgeStyle;rounded=0;orthogonalLoop=1;jettySize=auto;html=1;exitX=1;exitY=0.5;exitDx=0;exitDy=0;exitPerimeter=0;entryX=0;entryY=0.5;entryDx=0;entryDy=0;entryPerimeter=0;" parent="1" source="whR3XcUw4ILn3mc_81YM-4" target="zA23MoTUsTF4_91t8viU-2" edge="1">
          <mxGeometry relative="1" as="geometry">
            <Array as="points">
              <mxPoint x="755" y="380" />
              <mxPoint x="755" y="280" />
            </Array>
          </mxGeometry>
        </mxCell>
        <mxCell id="whR3XcUw4ILn3mc_81YM-8" style="edgeStyle=orthogonalEdgeStyle;rounded=0;orthogonalLoop=1;jettySize=auto;html=1;exitX=1;exitY=0.5;exitDx=0;exitDy=0;exitPerimeter=0;entryX=0;entryY=0.5;entryDx=0;entryDy=0;entryPerimeter=0;" parent="1" source="whR3XcUw4ILn3mc_81YM-4" target="whR3XcUw4ILn3mc_81YM-1" edge="1">
          <mxGeometry relative="1" as="geometry">
            <Array as="points">
              <mxPoint x="755" y="380" />
              <mxPoint x="755" y="480" />
            </Array>
            <mxPoint x="795" y="480" as="targetPoint" />
          </mxGeometry>
        </mxCell>
        <mxCell id="FVx5Pew635A9cgDZqpCC-1" value="MongoDB&lt;div&gt;shard 1-2&lt;/div&gt;" style="shape=cylinder3;whiteSpace=wrap;html=1;boundedLbl=1;backgroundOutline=1;size=15;" parent="1" vertex="1">
          <mxGeometry x="1055" y="190" width="60" height="80" as="geometry" />
        </mxCell>
        <mxCell id="FVx5Pew635A9cgDZqpCC-2" value="MongoDB&lt;div&gt;shard 1-3&lt;/div&gt;" style="shape=cylinder3;whiteSpace=wrap;html=1;boundedLbl=1;backgroundOutline=1;size=15;" parent="1" vertex="1">
          <mxGeometry x="1055" y="290" width="60" height="80" as="geometry" />
        </mxCell>
        <mxCell id="FVx5Pew635A9cgDZqpCC-3" value="MongoDB&lt;div&gt;shard 2-2&lt;/div&gt;" style="shape=cylinder3;whiteSpace=wrap;html=1;boundedLbl=1;backgroundOutline=1;size=15;" parent="1" vertex="1">
          <mxGeometry x="1055" y="390" width="60" height="80" as="geometry" />
        </mxCell>
        <mxCell id="FVx5Pew635A9cgDZqpCC-4" value="MongoDB&lt;div&gt;shard 2-3&lt;/div&gt;" style="shape=cylinder3;whiteSpace=wrap;html=1;boundedLbl=1;backgroundOutline=1;size=15;" parent="1" vertex="1">
          <mxGeometry x="1055" y="490" width="60" height="80" as="geometry" />
        </mxCell>
        <mxCell id="FVx5Pew635A9cgDZqpCC-6" style="edgeStyle=orthogonalEdgeStyle;rounded=0;orthogonalLoop=1;jettySize=auto;html=1;exitX=1;exitY=0.5;exitDx=0;exitDy=0;exitPerimeter=0;entryX=0;entryY=0.5;entryDx=0;entryDy=0;entryPerimeter=0;startArrow=classic;startFill=1;dashed=1;" parent="1" source="zA23MoTUsTF4_91t8viU-2" target="FVx5Pew635A9cgDZqpCC-1" edge="1">
          <mxGeometry relative="1" as="geometry" />
        </mxCell>
        <mxCell id="FVx5Pew635A9cgDZqpCC-7" style="edgeStyle=orthogonalEdgeStyle;rounded=0;orthogonalLoop=1;jettySize=auto;html=1;exitX=1;exitY=0.5;exitDx=0;exitDy=0;exitPerimeter=0;entryX=0;entryY=0.5;entryDx=0;entryDy=0;entryPerimeter=0;dashed=1;startArrow=classic;startFill=1;" parent="1" source="whR3XcUw4ILn3mc_81YM-1" target="FVx5Pew635A9cgDZqpCC-3" edge="1">
          <mxGeometry relative="1" as="geometry">
            <mxPoint x="855" y="480" as="sourcePoint" />
          </mxGeometry>
        </mxCell>
        <mxCell id="FVx5Pew635A9cgDZqpCC-8" style="edgeStyle=orthogonalEdgeStyle;rounded=0;orthogonalLoop=1;jettySize=auto;html=1;exitX=1;exitY=0.5;exitDx=0;exitDy=0;exitPerimeter=0;entryX=0;entryY=0.5;entryDx=0;entryDy=0;entryPerimeter=0;dashed=1;startArrow=classic;startFill=1;" parent="1" source="whR3XcUw4ILn3mc_81YM-1" target="FVx5Pew635A9cgDZqpCC-4" edge="1">
          <mxGeometry relative="1" as="geometry" />
        </mxCell>
        <mxCell id="FVx5Pew635A9cgDZqpCC-12" style="edgeStyle=orthogonalEdgeStyle;rounded=0;orthogonalLoop=1;jettySize=auto;html=1;exitX=0.5;exitY=0;exitDx=0;exitDy=0;exitPerimeter=0;entryX=1;entryY=0.5;entryDx=0;entryDy=0;entryPerimeter=0;dashed=1;" parent="1" source="zA23MoTUsTF4_91t8viU-2" target="whR3XcUw4ILn3mc_81YM-3" edge="1">
          <mxGeometry relative="1" as="geometry" />
        </mxCell>
        <mxCell id="FVx5Pew635A9cgDZqpCC-13" value="Redis" style="shape=cylinder3;whiteSpace=wrap;html=1;boundedLbl=1;backgroundOutline=1;size=15;" parent="1" vertex="1">
          <mxGeometry x="430" y="610" width="60" height="80" as="geometry" />
        </mxCell>
        <mxCell id="ufz0cKF_8sv-xkruWy4r-5" style="edgeStyle=orthogonalEdgeStyle;rounded=0;orthogonalLoop=1;jettySize=auto;html=1;exitX=0;exitY=0.25;exitDx=0;exitDy=0;entryX=1;entryY=0.5;entryDx=0;entryDy=0;dashed=1;" parent="1" source="FVx5Pew635A9cgDZqpCC-15" target="FVx5Pew635A9cgDZqpCC-22" edge="1">
          <mxGeometry relative="1" as="geometry" />
        </mxCell>
        <mxCell id="FVx5Pew635A9cgDZqpCC-15" value="pymongo-api" style="rounded=1;whiteSpace=wrap;html=1;" parent="1" vertex="1">
          <mxGeometry x="400" y="280" width="120" height="60" as="geometry" />
        </mxCell>
        <mxCell id="FVx5Pew635A9cgDZqpCC-16" style="edgeStyle=orthogonalEdgeStyle;rounded=0;orthogonalLoop=1;jettySize=auto;html=1;exitX=1;exitY=0.5;exitDx=0;exitDy=0;entryX=0;entryY=0.5;entryDx=0;entryDy=0;entryPerimeter=0;" parent="1" source="FVx5Pew635A9cgDZqpCC-15" target="whR3XcUw4ILn3mc_81YM-4" edge="1">
          <mxGeometry relative="1" as="geometry">
            <Array as="points">
              <mxPoint x="560" y="310" />
              <mxPoint x="560" y="380" />
            </Array>
          </mxGeometry>
        </mxCell>
        <mxCell id="FVx5Pew635A9cgDZqpCC-17" value="Redis" style="shape=cylinder3;whiteSpace=wrap;html=1;boundedLbl=1;backgroundOutline=1;size=15;" parent="1" vertex="1">
          <mxGeometry x="430" y="50" width="60" height="80" as="geometry" />
        </mxCell>
        <mxCell id="FVx5Pew635A9cgDZqpCC-20" style="edgeStyle=orthogonalEdgeStyle;rounded=0;orthogonalLoop=1;jettySize=auto;html=1;exitX=1;exitY=0.5;exitDx=0;exitDy=0;entryX=0;entryY=0.5;entryDx=0;entryDy=0;" parent="1" source="FVx5Pew635A9cgDZqpCC-19" target="FVx5Pew635A9cgDZqpCC-15" edge="1">
          <mxGeometry relative="1" as="geometry">
            <Array as="points">
              <mxPoint x="360" y="384" />
              <mxPoint x="360" y="310" />
            </Array>
          </mxGeometry>
        </mxCell>
        <mxCell id="FVx5Pew635A9cgDZqpCC-21" style="edgeStyle=orthogonalEdgeStyle;rounded=0;orthogonalLoop=1;jettySize=auto;html=1;exitX=1;exitY=0.5;exitDx=0;exitDy=0;entryX=0;entryY=0.5;entryDx=0;entryDy=0;" parent="1" source="FVx5Pew635A9cgDZqpCC-19" target="zA23MoTUsTF4_91t8viU-3" edge="1">
          <mxGeometry relative="1" as="geometry">
            <Array as="points">
              <mxPoint x="360" y="384" />
              <mxPoint x="360" y="460" />
            </Array>
          </mxGeometry>
        </mxCell>
        <mxCell id="ufz0cKF_8sv-xkruWy4r-6" style="edgeStyle=orthogonalEdgeStyle;rounded=0;orthogonalLoop=1;jettySize=auto;html=1;exitX=0.25;exitY=1;exitDx=0;exitDy=0;entryX=0.25;entryY=0;entryDx=0;entryDy=0;" parent="1" source="FVx5Pew635A9cgDZqpCC-19" target="FVx5Pew635A9cgDZqpCC-22" edge="1">
          <mxGeometry relative="1" as="geometry" />
        </mxCell>
        <mxCell id="FVx5Pew635A9cgDZqpCC-19" value="API Gateway" style="rounded=1;whiteSpace=wrap;html=1;" parent="1" vertex="1">
          <mxGeometry x="40" y="350" width="120" height="60" as="geometry" />
        </mxCell>
        <mxCell id="FVx5Pew635A9cgDZqpCC-22" value="Consul" style="rounded=1;whiteSpace=wrap;html=1;" parent="1" vertex="1">
          <mxGeometry x="40" y="592.5" width="120" height="60" as="geometry" />
        </mxCell>
        <mxCell id="FVx5Pew635A9cgDZqpCC-28" style="edgeStyle=orthogonalEdgeStyle;rounded=0;orthogonalLoop=1;jettySize=auto;html=1;exitX=0.5;exitY=1;exitDx=0;exitDy=0;entryX=0.5;entryY=0;entryDx=0;entryDy=0;" parent="1" source="FVx5Pew635A9cgDZqpCC-27" target="FVx5Pew635A9cgDZqpCC-19" edge="1">
          <mxGeometry relative="1" as="geometry" />
        </mxCell>
        <mxCell id="ufz0cKF_8sv-xkruWy4r-9" style="edgeStyle=orthogonalEdgeStyle;rounded=0;orthogonalLoop=1;jettySize=auto;html=1;exitX=0.5;exitY=1;exitDx=0;exitDy=0;entryX=0;entryY=0.5;entryDx=0;entryDy=0;" parent="1" source="FVx5Pew635A9cgDZqpCC-27" target="ufz0cKF_8sv-xkruWy4r-7" edge="1">
          <mxGeometry relative="1" as="geometry" />
        </mxCell>
        <mxCell id="ufz0cKF_8sv-xkruWy4r-10" style="edgeStyle=orthogonalEdgeStyle;rounded=0;orthogonalLoop=1;jettySize=auto;html=1;exitX=0.5;exitY=1;exitDx=0;exitDy=0;entryX=0;entryY=0.5;entryDx=0;entryDy=0;" parent="1" source="FVx5Pew635A9cgDZqpCC-27" target="ufz0cKF_8sv-xkruWy4r-8" edge="1">
          <mxGeometry relative="1" as="geometry" />
        </mxCell>
        <mxCell id="FVx5Pew635A9cgDZqpCC-27" value="Сайт" style="rounded=1;whiteSpace=wrap;html=1;" parent="1" vertex="1">
          <mxGeometry x="40" y="200" width="120" height="60" as="geometry" />
        </mxCell>
        <mxCell id="FVx5Pew635A9cgDZqpCC-30" value="" style="edgeStyle=orthogonalEdgeStyle;rounded=0;orthogonalLoop=1;jettySize=auto;html=1;" parent="1" source="FVx5Pew635A9cgDZqpCC-29" target="FVx5Pew635A9cgDZqpCC-27" edge="1">
          <mxGeometry relative="1" as="geometry" />
        </mxCell>
        <mxCell id="FVx5Pew635A9cgDZqpCC-31" value="" style="edgeStyle=orthogonalEdgeStyle;rounded=0;orthogonalLoop=1;jettySize=auto;html=1;" parent="1" source="FVx5Pew635A9cgDZqpCC-29" target="FVx5Pew635A9cgDZqpCC-27" edge="1">
          <mxGeometry relative="1" as="geometry" />
        </mxCell>
        <mxCell id="FVx5Pew635A9cgDZqpCC-32" value="" style="edgeStyle=orthogonalEdgeStyle;rounded=0;orthogonalLoop=1;jettySize=auto;html=1;" parent="1" source="FVx5Pew635A9cgDZqpCC-29" target="FVx5Pew635A9cgDZqpCC-27" edge="1">
          <mxGeometry relative="1" as="geometry" />
        </mxCell>
        <mxCell id="FVx5Pew635A9cgDZqpCC-29" value="Клиент" style="shape=umlActor;verticalLabelPosition=bottom;verticalAlign=top;html=1;outlineConnect=0;" parent="1" vertex="1">
          <mxGeometry x="85" y="50" width="30" height="60" as="geometry" />
        </mxCell>
        <mxCell id="FVx5Pew635A9cgDZqpCC-34" value="consul_kv" style="rounded=1;whiteSpace=wrap;html=1;" parent="1" vertex="1">
          <mxGeometry x="100" y="390" width="60" height="20" as="geometry" />
        </mxCell>
        <mxCell id="FVx5Pew635A9cgDZqpCC-44" value="App" style="text;html=1;align=center;verticalAlign=middle;whiteSpace=wrap;rounded=0;" parent="1" vertex="1">
          <mxGeometry x="520" y="260" width="60" height="30" as="geometry" />
        </mxCell>
        <mxCell id="FVx5Pew635A9cgDZqpCC-45" value="Cache" style="text;html=1;align=center;verticalAlign=middle;whiteSpace=wrap;rounded=0;" parent="1" vertex="1">
          <mxGeometry x="465" y="20" width="60" height="30" as="geometry" />
        </mxCell>
        <mxCell id="FVx5Pew635A9cgDZqpCC-46" value="Cache" style="text;html=1;align=center;verticalAlign=middle;whiteSpace=wrap;rounded=0;" parent="1" vertex="1">
          <mxGeometry x="465" y="580" width="60" height="30" as="geometry" />
        </mxCell>
        <mxCell id="FVx5Pew635A9cgDZqpCC-47" value="&lt;font style=&quot;font-size: 18px;&quot;&gt;Кластер MongoDB&lt;/font&gt;" style="text;html=1;align=center;verticalAlign=middle;whiteSpace=wrap;rounded=0;" parent="1" vertex="1">
          <mxGeometry x="915" y="110" width="180" height="30" as="geometry" />
        </mxCell>
        <mxCell id="FVx5Pew635A9cgDZqpCC-48" value="Service discovery" style="text;html=1;align=center;verticalAlign=middle;whiteSpace=wrap;rounded=0;" parent="1" vertex="1">
          <mxGeometry x="75" y="550" width="100" height="30" as="geometry" />
        </mxCell>
        <mxCell id="FVx5Pew635A9cgDZqpCC-39" style="edgeStyle=orthogonalEdgeStyle;rounded=0;orthogonalLoop=1;jettySize=auto;html=1;exitX=0.5;exitY=0;exitDx=0;exitDy=0;" parent="1" source="FVx5Pew635A9cgDZqpCC-15" target="FVx5Pew635A9cgDZqpCC-17" edge="1">
          <mxGeometry relative="1" as="geometry" />
        </mxCell>
        <mxCell id="FVx5Pew635A9cgDZqpCC-38" style="edgeStyle=orthogonalEdgeStyle;rounded=0;orthogonalLoop=1;jettySize=auto;html=1;exitX=0.5;exitY=1;exitDx=0;exitDy=0;entryX=0.5;entryY=0;entryDx=0;entryDy=0;entryPerimeter=0;" parent="1" source="zA23MoTUsTF4_91t8viU-3" target="FVx5Pew635A9cgDZqpCC-13" edge="1">
          <mxGeometry relative="1" as="geometry" />
        </mxCell>
        <mxCell id="FVx5Pew635A9cgDZqpCC-49" value="Б&lt;span style=&quot;background-color: initial;&quot;&gt;алансировка&lt;/span&gt;" style="text;html=1;align=center;verticalAlign=middle;whiteSpace=wrap;rounded=0;" parent="1" vertex="1">
          <mxGeometry x="75" y="420" width="130" height="30" as="geometry" />
        </mxCell>
        <mxCell id="ufz0cKF_8sv-xkruWy4r-7" value="CDN" style="rounded=1;whiteSpace=wrap;html=1;" parent="1" vertex="1">
          <mxGeometry x="205" y="50" width="100" height="50" as="geometry" />
        </mxCell>
        <mxCell id="ufz0cKF_8sv-xkruWy4r-8" value="CDN" style="rounded=1;whiteSpace=wrap;html=1;" parent="1" vertex="1">
          <mxGeometry x="205" y="120" width="100" height="50" as="geometry" />
        </mxCell>
        <mxCell id="ufz0cKF_8sv-xkruWy4r-13" value="Оптимизация скорости доставки контента" style="text;html=1;align=center;verticalAlign=middle;whiteSpace=wrap;rounded=0;fontColor=#FFFFFF;" parent="1" vertex="1">
          <mxGeometry x="180.55" y="10" width="159.45" height="30" as="geometry" />
        </mxCell>
        <mxCell id="yAgyfxaWNmsnxuvbeK1X-1" value="2" style="ellipse;whiteSpace=wrap;html=1;aspect=fixed;fillColor=#00CC00;" vertex="1" parent="1">
          <mxGeometry x="160" y="259" width="20" height="20" as="geometry" />
        </mxCell>
        <mxCell id="yAgyfxaWNmsnxuvbeK1X-2" value="3" style="ellipse;whiteSpace=wrap;html=1;aspect=fixed;fillColor=#00CC00;" vertex="1" parent="1">
          <mxGeometry x="79" y="289" width="20" height="20" as="geometry" />
        </mxCell>
        <mxCell id="yAgyfxaWNmsnxuvbeK1X-3" value="4" style="ellipse;whiteSpace=wrap;html=1;aspect=fixed;fillColor=#00CC00;" vertex="1" parent="1">
          <mxGeometry x="49" y="490" width="20" height="20" as="geometry" />
        </mxCell>
        <mxCell id="yAgyfxaWNmsnxuvbeK1X-5" value="5" style="ellipse;whiteSpace=wrap;html=1;aspect=fixed;fillColor=#00CC00;" vertex="1" parent="1">
          <mxGeometry x="230" y="363" width="20" height="20" as="geometry" />
        </mxCell>
        <mxCell id="yAgyfxaWNmsnxuvbeK1X-6" value="6" style="ellipse;whiteSpace=wrap;html=1;aspect=fixed;fillColor=#00CC00;" vertex="1" parent="1">
          <mxGeometry x="439" y="200" width="20" height="20" as="geometry" />
        </mxCell>
        <mxCell id="yAgyfxaWNmsnxuvbeK1X-7" value="6" style="ellipse;whiteSpace=wrap;html=1;aspect=fixed;fillColor=#00CC00;" vertex="1" parent="1">
          <mxGeometry x="439" y="550" width="20" height="20" as="geometry" />
        </mxCell>
        <mxCell id="yAgyfxaWNmsnxuvbeK1X-8" value="7" style="ellipse;whiteSpace=wrap;html=1;aspect=fixed;fillColor=#00CC00;" vertex="1" parent="1">
          <mxGeometry x="601" y="359" width="20" height="20" as="geometry" />
        </mxCell>
        <mxCell id="yAgyfxaWNmsnxuvbeK1X-9" value="1" style="ellipse;whiteSpace=wrap;html=1;aspect=fixed;fillColor=#00CC00;" vertex="1" parent="1">
          <mxGeometry x="861" y="202" width="20" height="20" as="geometry" />
        </mxCell>
        <mxCell id="yAgyfxaWNmsnxuvbeK1X-10" value="8" style="ellipse;whiteSpace=wrap;html=1;aspect=fixed;fillColor=#00CC00;" vertex="1" parent="1">
          <mxGeometry x="653" y="290" width="20" height="20" as="geometry" />
        </mxCell>
        <mxCell id="yAgyfxaWNmsnxuvbeK1X-11" value="9" style="ellipse;whiteSpace=wrap;html=1;aspect=fixed;fillColor=#00CC00;" vertex="1" parent="1">
          <mxGeometry x="733" y="358" width="20" height="20" as="geometry" />
        </mxCell>
        <mxCell id="yAgyfxaWNmsnxuvbeK1X-12" value="10" style="ellipse;whiteSpace=wrap;html=1;aspect=fixed;fillColor=#00CC00;" vertex="1" parent="1">
          <mxGeometry x="962" y="257" width="20" height="20" as="geometry" />
        </mxCell>
        <mxCell id="yAgyfxaWNmsnxuvbeK1X-13" value="10" style="ellipse;whiteSpace=wrap;html=1;aspect=fixed;fillColor=#00CC00;" vertex="1" parent="1">
          <mxGeometry x="962" y="457" width="20" height="20" as="geometry" />
        </mxCell>
        <mxCell id="yAgyfxaWNmsnxuvbeK1X-14" value="&lt;h1 style=&quot;margin-top: 0px; margin-bottom: 4px;&quot;&gt;&lt;font style=&quot;font-size: 18px;&quot;&gt;Описание взаимодействий&lt;/font&gt;&lt;/h1&gt;&lt;p style=&quot;margin-top: 0px;&quot;&gt;&lt;b&gt;1) &lt;/b&gt;Экземпляры приложений при создании/удалении регистрируются в реестре сервисов; элементы кластера MongoDB передают всю информацию о шардах/репликах в конфиг сервис Mongo&lt;br&gt;&lt;b&gt;2) &lt;/b&gt;Если пользователь выполняет запрос за статическим контентом, его запрос маршрутизуется к географически ближайшему серверу CDN для оптимизации скорости загрузки&lt;br&gt;&lt;b&gt;3)&lt;/b&gt;&amp;nbsp;Все входящие запросы проходят через Api gateway для балансировки нагрузки на приложение&lt;br&gt;&lt;b&gt;4) &lt;/b&gt;Api gateway получает актуальный список сервисов и их адреса у реестра сервисов&lt;br&gt;&lt;b&gt;5)&lt;/b&gt; Запрос маршрутизуется к конкретному экземпляру приложения реализуя равномерную нагрузку&lt;br&gt;&lt;b&gt;6)&lt;/b&gt; При обращении к редко меняющимся данным их наличие в первую очередь проверяется в кэше для снижения нагрузки на БД и значительного ускорения обработки запроса&lt;br&gt;&lt;b&gt;7)&lt;/b&gt; Приложение обращается к роутеру кластера, который маршрутизует запрос до нужного шарда БД&lt;br&gt;&lt;b&gt;8)&lt;/b&gt; Роутер использует информацию конфиг сервиса для определения, к какому шарду направлять запрос&lt;br&gt;&lt;b&gt;9)&lt;/b&gt; Запросы на запись маршрутизуются к мастеру каждого набора реплик; запросы на чтение могут направляться на реплики&lt;br&gt;&lt;b&gt;10) &lt;/b&gt;В случае запросов на запись,&amp;nbsp;&lt;span style=&quot;background-color: initial;&quot;&gt;изменения&lt;/span&gt;&lt;span style=&quot;background-color: initial;&quot;&gt;&amp;nbsp;&lt;/span&gt;&lt;span style=&quot;background-color: initial;&quot;&gt;копируются в&lt;/span&gt;&lt;span style=&quot;background-color: initial;&quot;&gt;&amp;nbsp;&lt;/span&gt;&lt;span style=&quot;background-color: initial;&quot;&gt;реплики&lt;/span&gt;&lt;/p&gt;" style="text;html=1;whiteSpace=wrap;overflow=hidden;rounded=0;" vertex="1" parent="1">
          <mxGeometry x="549" y="620" width="620" height="250" as="geometry" />
        </mxCell>
        <mxCell id="yAgyfxaWNmsnxuvbeK1X-16" value="1" style="ellipse;whiteSpace=wrap;html=1;aspect=fixed;fillColor=#00CC00;" vertex="1" parent="1">
          <mxGeometry x="257.27" y="601" width="20" height="20" as="geometry" />
        </mxCell>
      </root>
    </mxGraphModel>
  </diagram>
</mxfile>
